<?xml version="1.0" encoding="utf-8"?>
<!-- Generator: Adobe Illustrator 25.2.1, SVG Export Plug-In . SVG Version: 6.00 Build 0)  -->
<svg version="1.1" id="Layer_1" xmlns="http://www.w3.org/2000/svg" xmlns:xlink="http://www.w3.org/1999/xlink" x="0px" y="0px"
	 viewBox="0 0 62.22 44.97" style="enable-background:new 0 0 62.22 44.97;" xml:space="preserve">
<style type="text/css">
	.st0{fill:#FFFFFF;}
</style>
<g>
	<path class="st0" d="M2.95,0.13c1.18,0,2.02,0.41,2.02,1.48c0,0.63-0.34,1.06-0.84,1.24c0.56,0.18,0.96,0.63,0.96,1.33
		c0,1.09-0.8,1.56-2.04,1.56H0.78v-5.6H2.95z M1.43,0.74v1.85h1.5c0.77,0,1.37-0.18,1.37-0.94c0-0.73-0.6-0.92-1.37-0.92H1.43z
		 M1.43,3.19v1.94h1.6c0.84,0,1.39-0.22,1.39-0.97c0-0.74-0.55-0.96-1.39-0.96H1.43z"/>
	<path class="st0" d="M14.97,1.21l-0.54,0.36c-0.37-0.56-1.01-0.9-1.75-0.9c-1.26,0-2.21,0.91-2.21,2.26s0.96,2.26,2.21,2.26
		c0.74,0,1.37-0.34,1.75-0.9l0.52,0.38c-0.46,0.7-1.3,1.13-2.27,1.13c-1.66,0-2.89-1.2-2.89-2.88s1.23-2.88,2.89-2.88
		C13.66,0.05,14.53,0.49,14.97,1.21z"/>
	<path class="st0" d="M24.55,5.73h-0.58l-3.47-4.49v4.49h-0.64v-5.6h0.58l3.47,4.49V0.13h0.64V5.73z"/>
	<path class="st0" d="M32.08,0.13c1.3,0,2.12,0.48,2.12,1.55c0,0.56-0.34,1.02-0.81,1.19c0.51,0.17,0.93,0.65,0.93,1.26
		c0,1.08-0.76,1.6-2.11,1.6h-2.42v-5.6H32.08z M30.91,1.12v1.31h1.14c0.56,0,0.99-0.12,0.99-0.66c0-0.53-0.44-0.65-0.99-0.65H30.91z
		 M30.91,3.4v1.34l1.25,0c0.62,0,1-0.14,1-0.68c0-0.52-0.39-0.67-1-0.67H30.91z"/>
	<path class="st0" d="M43.28,5.73h-4.18v-5.6h4.15v1.02h-3.03V2.4h2.89v1.02h-2.89v1.29h3.07V5.73z"/>
	<path class="st0" d="M52.35,5.73h-4.18v-5.6h4.15v1.02h-3.03V2.4h2.89v1.02h-2.89v1.29h3.07V5.73z"/>
	<path class="st0" d="M59.61,0.13c1.33,0,2.05,0.63,2.05,1.7c0,0.92-0.64,1.55-1.71,1.65l1.72,2.24h-1.35L58.68,3.5h-0.33v2.23
		h-1.12v-5.6H59.61z M58.35,1.16v1.37h1.23c0.61,0,0.92-0.22,0.92-0.7c0-0.46-0.33-0.68-0.92-0.68H58.35z"/>
	<path class="st0" d="M4.69,14.48H2.96v4.55H1.84v-4.55H0.1v-1.04h4.59V14.48z"/>
	<path class="st0" d="M13.74,19.03h-1.19l-0.49-1.3H9.67l-0.49,1.3H8.02l2.18-5.6h1.36L13.74,19.03z M10.06,16.7h1.62l-0.81-2.16
		L10.06,16.7z"/>
	<path class="st0" d="M21.99,14.84c-0.44-0.27-0.98-0.48-1.59-0.48c-0.63,0-1.07,0.25-1.07,0.67c0,0.41,0.48,0.54,1.16,0.65
		l0.32,0.05c1,0.16,1.78,0.59,1.78,1.57c0,1.24-1.09,1.82-2.29,1.82c-0.85,0-1.76-0.25-2.36-0.73l0.58-0.9
		c0.4,0.32,1.06,0.6,1.78,0.6c0.62,0,1.1-0.24,1.1-0.68c0-0.39-0.41-0.53-1.19-0.66l-0.36-0.06c-0.99-0.16-1.71-0.59-1.71-1.6
		c0-1.17,1.04-1.77,2.23-1.77c0.78,0,1.44,0.18,2.14,0.6L21.99,14.84z"/>
	<path class="st0" d="M31.44,14.48h-1.73v4.55h-1.12v-4.55h-1.73v-1.04h4.59V14.48z"/>
	<path class="st0" d="M37,19.03h-1.12v-5.6H37V19.03z"/>
	<path class="st0" d="M47.01,19.03h-1.05l-2.84-3.74l0,3.74h-1.12v-5.6h1.04l2.84,3.74v-3.74h1.12V19.03z"/>
	<path class="st0" d="M56.82,14.19l-0.8,0.79c-0.32-0.36-0.78-0.59-1.35-0.59c-1.02,0-1.77,0.75-1.77,1.84
		c0,1.14,0.78,1.86,1.75,1.86c0.91,0,1.44-0.44,1.59-1.24h-1.42v-0.93h2.57c0.01,0.11,0.02,0.21,0.02,0.32
		c0,1.7-1.15,2.89-2.73,2.89c-1.55,0-2.93-1.09-2.93-2.9c0-1.69,1.24-2.9,2.95-2.9C55.59,13.33,56.33,13.65,56.82,14.19z"/>
	<path class="st0" d="M1,30.31c0.79-1.18,2.27-2.78,5.15-2.78c3.41,0,5.36,2.23,5.36,5.19c0,2.09-1.16,3.59-2.25,4.75l-5.01,5.3
		h7.82v1.76H1.49v-1.45l6.34-6.69c1.03-1.08,1.73-2.23,1.73-3.67c0-1.93-1.25-3.43-3.48-3.43c-1.91,0-2.95,1-3.74,2.1L1,30.31z"/>
	<path class="st0" d="M24.86,30.31c0.79-1.18,2.27-2.78,5.15-2.78c3.41,0,5.36,2.23,5.36,5.19c0,2.09-1.16,3.59-2.25,4.75l-5.01,5.3
		h7.82v1.76H25.35v-1.45l6.34-6.69c1.03-1.08,1.73-2.23,1.73-3.67c0-1.93-1.25-3.43-3.48-3.43c-1.91,0-2.95,1-3.74,2.1L24.86,30.31z
		"/>
	<path class="st0" d="M50.81,27.26l-0.84,5.01h-0.12l0.84-5.01H50.81z"/>
</g>
</svg>
