<?xml version="1.0" encoding="utf-8"?>
<!-- Generator: Adobe Illustrator 25.2.1, SVG Export Plug-In . SVG Version: 6.00 Build 0)  -->
<svg version="1.1" id="Layer_1" xmlns="http://www.w3.org/2000/svg" xmlns:xlink="http://www.w3.org/1999/xlink" x="0px" y="0px"
	 viewBox="0 0 200 36.15" style="enable-background:new 0 0 200 36.15;" xml:space="preserve">
<g>
	<path d="M14.92,0.82c2.49,0,4.05,0.92,4.05,2.96c0,1.08-0.66,1.94-1.55,2.27c0.98,0.33,1.78,1.24,1.78,2.4
		c0,2.05-1.46,3.06-4.02,3.06h-4.62V0.82H14.92z M12.68,2.7v2.49h2.18c1.06,0,1.88-0.22,1.88-1.26c0-1.01-0.84-1.24-1.89-1.24H12.68
		z M12.68,7.06v2.56l2.39,0.01c1.17,0,1.91-0.27,1.91-1.3c0-1-0.74-1.27-1.91-1.27H12.68z"/>
	<path d="M36.28,11.5H28.3V0.82h7.92v1.95h-5.79v2.36h5.52v1.95h-5.52v2.46h5.85V11.5z"/>
	<path d="M53.59,11.5h-7.98V0.82h7.92v1.95h-5.79v2.36h5.52v1.95h-5.52v2.46h5.85V11.5z"/>
	<path d="M67.44,0.82c2.55,0,3.91,1.2,3.91,3.25c0,1.75-1.22,2.95-3.27,3.15l3.29,4.28h-2.58l-3.11-4.25h-0.63v4.25h-2.13V0.82
		H67.44z M65.05,2.78V5.4h2.35c1.16,0,1.76-0.43,1.76-1.33c0-0.88-0.63-1.29-1.76-1.29H65.05z"/>
	<path d="M98.41,2.81H95.1v8.69h-2.13V2.81h-3.31V0.82h8.75V2.81z"/>
	<path d="M115.68,11.5h-2.27l-0.93-2.49h-4.55l-0.93,2.49h-2.22l4.16-10.68h2.59L115.68,11.5z M108.65,7.06h3.09l-1.54-4.13
		L108.65,7.06z"/>
	<path d="M131.42,3.52c-0.84-0.52-1.86-0.91-3.03-0.91c-1.2,0-2.04,0.47-2.04,1.28c0,0.79,0.92,1.02,2.2,1.24l0.6,0.1
		c1.91,0.31,3.4,1.13,3.4,2.99c0,2.36-2.08,3.48-4.37,3.48c-1.62,0-3.36-0.47-4.5-1.4l1.11-1.72c0.77,0.62,2.03,1.15,3.4,1.15
		c1.18,0,2.1-0.46,2.1-1.29c0-0.74-0.78-1.01-2.27-1.25l-0.68-0.11c-1.88-0.3-3.26-1.13-3.26-3.06c0-2.23,1.98-3.39,4.26-3.39
		c1.5,0,2.74,0.34,4.08,1.14L131.42,3.52z"/>
	<path d="M149.46,2.81h-3.31v8.69h-2.13V2.81h-3.31V0.82h8.75V2.81z"/>
	<path d="M160.05,11.5h-2.13V0.82h2.13V11.5z"/>
	<path d="M179.16,11.5h-2l-5.42-7.13l-0.01,7.13h-2.13V0.82h1.99l5.42,7.13V0.82h2.14V11.5z"/>
	<path d="M197.88,2.27l-1.53,1.5c-0.6-0.69-1.49-1.12-2.58-1.12c-1.95,0-3.37,1.43-3.37,3.52c0,2.18,1.49,3.55,3.33,3.55
		c1.74,0,2.75-0.84,3.04-2.36h-2.71V5.58h4.91c0.02,0.21,0.03,0.4,0.03,0.6c0,3.23-2.19,5.52-5.22,5.52c-2.96,0-5.58-2.08-5.58-5.53
		c0-3.23,2.36-5.54,5.64-5.54C195.53,0.63,196.94,1.24,197.88,2.27z"/>
	<path d="M5.31,22.96c2.24,0,3.86,0.79,3.86,2.82c0,1.2-0.65,2.03-1.61,2.36c1.07,0.35,1.84,1.2,1.84,2.53
		c0,2.07-1.53,2.97-3.89,2.97H1.17V22.96H5.31z M2.4,24.11v3.54h2.87c1.47,0,2.61-0.35,2.61-1.78c0-1.4-1.14-1.75-2.62-1.75H2.4z
		 M2.4,28.79v3.69h3.05c1.6,0,2.65-0.42,2.65-1.85c0-1.42-1.05-1.84-2.65-1.84H2.4z"/>
	<path d="M27.87,33.63h-1.31l-1.21-2.97h-5.29l-1.21,2.97h-1.27l4.39-10.68h1.52L27.87,33.63z M20.54,29.5h4.35l-2.17-5.33
		L20.54,29.5z"/>
	<path d="M40.96,22.96c2.4,0,3.73,1.08,3.73,3.01c0,1.85-1.43,3.02-3.71,3.02H40.8l3.84,4.64h-1.53l-3.76-4.64H38v4.64h-1.23V22.96
		H40.96z M38,24.11v3.77h2.94c1.62,0,2.47-0.66,2.47-1.91c0-1.24-0.87-1.86-2.47-1.86H38z"/>
	<path d="M63.34,25.02l-1.02,0.69c-0.7-1.06-1.92-1.72-3.33-1.72c-2.4,0-4.23,1.74-4.23,4.31s1.83,4.31,4.23,4.31
		c1.41,0,2.62-0.64,3.33-1.71l0.99,0.73c-0.89,1.33-2.49,2.16-4.33,2.16c-3.17,0-5.51-2.29-5.51-5.49c0-3.2,2.34-5.49,5.51-5.49
		C60.85,22.8,62.5,23.64,63.34,25.02z"/>
	<path d="M80.2,33.63h-7.51V22.96h7.44v1.15h-6.22v3.58h6.03v1.14h-6.03v3.65h6.28V33.63z"/>
	<path d="M97.26,33.63h-7.41V22.96h1.23v9.52h6.18V33.63z"/>
	<path d="M116.13,28.3c0,3.2-2.33,5.49-5.52,5.49c-3.17,0-5.52-2.29-5.52-5.49c0-3.2,2.34-5.49,5.52-5.49
		C113.8,22.8,116.13,25.09,116.13,28.3z M106.39,28.3c0,2.57,1.83,4.31,4.23,4.31c2.4,0,4.23-1.74,4.23-4.31s-1.83-4.31-4.23-4.31
		C108.22,23.99,106.39,25.73,106.39,28.3z"/>
	<path d="M134.65,33.63h-1.11l-6.61-8.57v8.57h-1.23V22.96h1.11l6.61,8.57v-8.57h1.23V33.63z"/>
	<path d="M153.84,33.63h-1.31l-1.21-2.97h-5.29l-1.21,2.97h-1.27l4.39-10.68h1.52L153.84,33.63z M146.51,29.5h4.35l-2.17-5.33
		L146.51,29.5z"/>
	<path d="M161.86,35.16h-0.08l6.47-13.27h0.08L161.86,35.16z"/>
	<path d="M176.43,24.59c0.5-0.75,1.44-1.77,3.27-1.77c2.17,0,3.41,1.42,3.41,3.3c0,1.33-0.74,2.28-1.43,3.02l-3.19,3.37h4.97v1.12
		h-6.72v-0.92l4.03-4.26c0.66-0.69,1.1-1.42,1.1-2.33c0-1.23-0.79-2.18-2.21-2.18c-1.21,0-1.88,0.63-2.38,1.34L176.43,24.59z"/>
	<path d="M191.97,24.59c0.5-0.75,1.44-1.77,3.27-1.77c2.17,0,3.41,1.42,3.41,3.3c0,1.33-0.74,2.28-1.43,3.02l-3.19,3.37H199v1.12
		h-6.72v-0.92l4.03-4.26c0.66-0.69,1.1-1.42,1.1-2.33c0-1.23-0.79-2.18-2.21-2.18c-1.21,0-1.88,0.63-2.38,1.34L191.97,24.59z"/>
</g>
</svg>
