<?xml version="1.0" encoding="utf-8"?>
<!-- Generator: Adobe Illustrator 26.1.0, SVG Export Plug-In . SVG Version: 6.00 Build 0)  -->
<svg version="1.1" id="Layer_1" xmlns="http://www.w3.org/2000/svg" xmlns:xlink="http://www.w3.org/1999/xlink" x="0px" y="0px"
	 viewBox="0 0 111.3 39.2" style="enable-background:new 0 0 111.3 39.2;" xml:space="preserve">
<style type="text/css">
	.st0{fill:#FFFFFF;}
</style>
<rect x="-432" y="-250" style="fill:none;" width="81" height="3"/>
<g>
	<path class="st0" d="M2.2,4.8H4v6.5c0,1.8,0.8,2.5,2.2,2.5c1.5,0,2.9-1.3,2.9-4V4.8h1.8v10.3H9v-1.9c-0.5,1.2-1.5,2.2-3.1,2.2
		c-2.7,0-3.7-1.8-3.7-3.9V4.8z"/>
	<path class="st0" d="M16.3,6.1c-1,0-2,0.6-2,1.4c0,0.8,0.8,1.3,1.7,1.5l1.4,0.3c1.6,0.4,3.1,1.1,3.1,2.8c0,2.2-2.3,3.2-4.1,3.2
		c-1.7,0-4-0.8-4.2-3.4H14c0.2,1.3,1.1,1.8,2.5,1.8c1,0,2.2-0.4,2.2-1.6c0-0.9-0.9-1.2-1.8-1.4l-1.4-0.4c-1.5-0.4-2.9-1.3-2.9-2.9
		c0-1.9,2-3,3.8-3c2,0,3.8,1.1,4,3.4h-1.8C18.5,6.6,17.3,6.1,16.3,6.1z"/>
	<path class="st0" d="M26.4,15.4c-3.1,0-5.1-2.2-5.1-5.5c0-3.1,2.1-5.4,5-5.4c3.6,0,4.8,2.9,4.8,5.6v0.3H23c0.1,2.2,1.5,3.4,3.3,3.4
		c1.4,0,2.5-0.5,2.9-1.8H31C30.4,14.2,28.7,15.4,26.4,15.4z M29.3,9c-0.2-1.8-1.2-3-3-3c-1.9,0-3,1.2-3.3,3H29.3z"/>
	<path class="st0" d="M34.4,6.9c0.5-1.5,1.5-2.1,3.1-2.1v1.7c-0.1,0-0.4,0-0.7,0.1c-1.2,0.2-2.4,0.7-2.4,3.7v4.9h-1.8V4.8h1.8V6.9z"
		/>
	<path class="st0" d="M42.1,6.1c-1,0-2,0.6-2,1.4c0,0.8,0.8,1.3,1.7,1.5l1.4,0.3c1.6,0.4,3.1,1.1,3.1,2.8c0,2.2-2.3,3.2-4.1,3.2
		c-1.7,0-4-0.8-4.2-3.4h1.8c0.2,1.3,1.1,1.8,2.5,1.8c1,0,2.2-0.4,2.2-1.6c0-0.9-0.9-1.2-1.8-1.4l-1.4-0.4c-1.5-0.4-2.9-1.3-2.9-2.9
		c0-1.9,2-3,3.8-3c2,0,3.8,1.1,4,3.4h-1.8C44.3,6.6,43.1,6.1,42.1,6.1z"/>
	<path class="st0" d="M63.8,7.7c0,4.2-2.7,7.4-7.2,7.4h-4.4V0.8h4.3C61.2,0.8,63.8,3.6,63.8,7.7z M56.7,13.5c2.9,0,5.3-2,5.3-5.8
		c0-3.7-2.4-5.3-5.3-5.3h-2.5v11.1H56.7z"/>
	<path class="st0" d="M77.3,7.7c0,4.2-2.7,7.4-7.2,7.4h-4.4V0.8h4.3C74.6,0.8,77.3,3.6,77.3,7.7z M70.1,13.5c2.9,0,5.3-2,5.3-5.8
		c0-3.7-2.4-5.3-5.3-5.3h-2.5v11.1H70.1z"/>
	<path class="st0" d="M79.1,0.8h5.2c2.4,0,4.2,1.4,4.2,3.8c0,1.5-0.8,2.5-2.3,3.2v0c1.6,0.3,2.9,1.4,2.9,3.2c0,2.7-1.9,4-4.9,4h-5.1
		V0.8z M83.9,7.1c1.7,0,2.7-0.8,2.7-2.4c0-1.6-1-2.2-2.7-2.2H81v4.6H83.9z M84.5,13.5c1.6,0,2.7-0.9,2.7-2.4c0-1.5-1.1-2.4-2.7-2.4
		H81v4.8H84.5z"/>
	<path class="st0" d="M91.1,0.8h5.2c2.4,0,4.2,1.4,4.2,3.8c0,1.5-0.8,2.5-2.3,3.2v0c1.6,0.3,2.9,1.4,2.9,3.2c0,2.7-1.9,4-4.9,4h-5.1
		V0.8z M95.9,7.1c1.7,0,2.7-0.8,2.7-2.4c0-1.6-1-2.2-2.7-2.2H93v4.6H95.9z M96.5,13.5c1.6,0,2.7-0.9,2.7-2.4c0-1.5-1.1-2.4-2.7-2.4
		H93v4.8H96.5z"/>
	<path class="st0" d="M7.2,22.8c2.8,0,5,1.8,5,4.3c0,2.3-1,3.5-3.1,5.1c-1.4,1.1-2.7,1.6-3.3,2.5h6.6v2.6H1.8c0-3.2,1.3-4.3,4.1-6.2
		c2.5-1.7,3.3-2.1,3.3-3.9c0-1.1-0.7-2-2-2C6,25.3,5,26.1,5,27.8H2C2,24.8,4.4,22.8,7.2,22.8z"/>
	<path class="st0" d="M19.1,22.9c4.3,0,5.6,3.6,5.6,7.3s-1.3,7.5-5.6,7.5s-5.6-3.7-5.6-7.5S14.8,22.9,19.1,22.9z M21.8,30.2
		c0-2.6-0.7-4.8-2.6-4.8s-2.6,2.2-2.6,4.8c0,2.6,0.7,5,2.6,5S21.8,32.8,21.8,30.2z"/>
	<path class="st0" d="M31.1,22.8c2.8,0,5,1.8,5,4.3c0,2.3-1,3.5-3.1,5.1c-1.4,1.1-2.7,1.6-3.3,2.5h6.6v2.6H25.7
		c0-3.2,1.3-4.3,4.1-6.2c2.5-1.7,3.3-2.1,3.3-3.9c0-1.1-0.7-2-2-2c-1.2,0-2.2,0.8-2.2,2.5h-3C25.9,24.8,28.3,22.8,31.1,22.8z"/>
	<path class="st0" d="M36.9,31l5.9-7.9H46v8.5h1.8v2.5H46v3.3h-3v-3.3h-6.2V31z M43,31.6v-4.9h-0.1l-3.5,4.9H43z"/>
	<path class="st0" d="M58.7,21.9l-4.9,17.3h-1.5l4.9-17.3H58.7z"/>
	<path class="st0" d="M69,22.8c2.8,0,5,1.8,5,4.3c0,2.3-1,3.5-3.1,5.1c-1.4,1.1-2.7,1.6-3.3,2.5h6.6v2.6H63.6c0-3.2,1.3-4.3,4.1-6.2
		c2.5-1.7,3.3-2.1,3.3-3.9c0-1.1-0.7-2-2-2c-1.2,0-2.2,0.8-2.2,2.5h-3C63.8,24.8,66.2,22.8,69,22.8z"/>
	<path class="st0" d="M80.9,22.9c4.3,0,5.6,3.6,5.6,7.3s-1.3,7.5-5.6,7.5c-4.3,0-5.6-3.7-5.6-7.5S76.6,22.9,80.9,22.9z M83.6,30.2
		c0-2.6-0.7-4.8-2.6-4.8s-2.6,2.2-2.6,4.8c0,2.6,0.7,5,2.6,5S83.6,32.8,83.6,30.2z"/>
	<path class="st0" d="M92.9,22.8c2.8,0,5,1.8,5,4.3c0,2.3-1,3.5-3.1,5.1c-1.4,1.1-2.7,1.6-3.3,2.5H98v2.6H87.5
		c0-3.2,1.3-4.3,4.1-6.2c2.5-1.7,3.3-2.1,3.3-3.9c0-1.1-0.7-2-2-2c-1.2,0-2.2,0.8-2.2,2.5h-3C87.7,24.8,90.1,22.8,92.9,22.8z"/>
	<path class="st0" d="M103,25.5l-0.4,3c0.6-0.5,1.4-0.8,2.4-0.8c2.9,0,4.8,1.9,4.8,4.9c0,2.9-2.3,5-5.3,5c-3.8,0-5-2.2-5.4-4.1
		l3-0.1c0.3,0.8,1,1.6,2.4,1.6c1.3,0,2.3-1.2,2.3-2.5c0-1.3-1-2.4-2.3-2.4c-1.2,0-1.8,0.6-2.3,1.2l-2.9-0.2l1.1-8.2l8.2,0v2.5H103z"
		/>
</g>
</svg>
