<?xml version="1.0" encoding="utf-8"?>
<!-- Generator: Adobe Illustrator 25.2.1, SVG Export Plug-In . SVG Version: 6.00 Build 0)  -->
<svg version="1.1" id="Layer_1" xmlns="http://www.w3.org/2000/svg" xmlns:xlink="http://www.w3.org/1999/xlink" x="0px" y="0px"
	 viewBox="0 0 62.22 44.97" style="enable-background:new 0 0 62.22 44.97;" xml:space="preserve">
<style type="text/css">
	.st0{fill:#264653;}
</style>
<g>
	<path class="st0" d="M3.12,0.16c1.18,0,2.02,0.41,2.02,1.48c0,0.63-0.34,1.06-0.84,1.24C4.86,3.06,5.27,3.51,5.27,4.2
		c0,1.09-0.8,1.56-2.04,1.56H0.96v-5.6H3.12z M1.6,0.77v1.85h1.5c0.77,0,1.37-0.18,1.37-0.94c0-0.73-0.6-0.92-1.37-0.92H1.6z
		 M1.6,3.22v1.94h1.6c0.84,0,1.39-0.22,1.39-0.97c0-0.74-0.55-0.96-1.39-0.96H1.6z"/>
	<path class="st0" d="M15.14,1.24L14.6,1.6c-0.37-0.56-1.01-0.9-1.75-0.9c-1.26,0-2.21,0.91-2.21,2.26s0.96,2.26,2.21,2.26
		c0.74,0,1.37-0.34,1.75-0.9l0.52,0.38c-0.46,0.7-1.3,1.13-2.27,1.13c-1.66,0-2.89-1.2-2.89-2.88s1.23-2.88,2.89-2.88
		C13.83,0.08,14.7,0.52,15.14,1.24z"/>
	<path class="st0" d="M24.73,5.76h-0.58l-3.47-4.49v4.49h-0.64v-5.6h0.58l3.47,4.49V0.16h0.64V5.76z"/>
	<path class="st0" d="M32.25,0.16c1.3,0,2.12,0.48,2.12,1.55c0,0.56-0.34,1.02-0.81,1.19c0.51,0.17,0.93,0.65,0.93,1.26
		c0,1.08-0.76,1.6-2.11,1.6h-2.42v-5.6H32.25z M31.08,1.15v1.31h1.14c0.56,0,0.99-0.12,0.99-0.66c0-0.53-0.44-0.65-0.99-0.65H31.08z
		 M31.08,3.43v1.34l1.25,0c0.62,0,1-0.14,1-0.68c0-0.52-0.39-0.67-1-0.67H31.08z"/>
	<path class="st0" d="M43.45,5.76h-4.18v-5.6h4.15v1.02h-3.03v1.24h2.89v1.02h-2.89v1.29h3.07V5.76z"/>
	<path class="st0" d="M52.52,5.76h-4.18v-5.6h4.15v1.02h-3.03v1.24h2.89v1.02h-2.89v1.29h3.07V5.76z"/>
	<path class="st0" d="M59.78,0.16c1.34,0,2.05,0.63,2.05,1.7c0,0.92-0.64,1.55-1.72,1.65l1.72,2.24h-1.35l-1.63-2.23h-0.33v2.23
		h-1.12v-5.6H59.78z M58.53,1.19v1.37h1.23c0.61,0,0.92-0.22,0.92-0.7c0-0.46-0.33-0.68-0.92-0.68H58.53z"/>
	<path class="st0" d="M9.13,14.51H7.39v4.55H6.28v-4.55H4.54v-1.04h4.59V14.51z"/>
	<path class="st0" d="M18.18,19.06h-1.19l-0.49-1.3h-2.39l-0.49,1.3h-1.16l2.18-5.6H16L18.18,19.06z M14.49,16.73h1.62l-0.81-2.16
		L14.49,16.73z"/>
	<path class="st0" d="M26.43,14.87c-0.44-0.27-0.98-0.48-1.59-0.48c-0.63,0-1.07,0.25-1.07,0.67c0,0.41,0.48,0.54,1.16,0.65
		l0.32,0.05c1,0.16,1.78,0.59,1.78,1.57c0,1.24-1.09,1.82-2.29,1.82c-0.85,0-1.76-0.25-2.36-0.73l0.58-0.9
		c0.4,0.32,1.06,0.6,1.78,0.6c0.62,0,1.1-0.24,1.1-0.68c0-0.39-0.41-0.53-1.19-0.66l-0.36-0.06c-0.99-0.16-1.71-0.59-1.71-1.6
		c0-1.17,1.04-1.77,2.23-1.77c0.78,0,1.44,0.18,2.14,0.6L26.43,14.87z"/>
	<path class="st0" d="M35.88,14.51h-1.74v4.55h-1.12v-4.55h-1.74v-1.04h4.59V14.51z"/>
	<path class="st0" d="M41.43,19.06h-1.12v-5.6h1.12V19.06z"/>
	<path class="st0" d="M51.45,19.06H50.4l-2.84-3.74l0,3.74h-1.12v-5.6h1.04l2.84,3.74v-3.74h1.12V19.06z"/>
	<path class="st0" d="M61.26,14.22l-0.8,0.79c-0.32-0.36-0.78-0.59-1.35-0.59c-1.02,0-1.77,0.75-1.77,1.84
		c0,1.14,0.78,1.86,1.75,1.86c0.91,0,1.44-0.44,1.59-1.24h-1.42v-0.93h2.57c0.01,0.11,0.02,0.21,0.02,0.32
		c0,1.7-1.15,2.89-2.73,2.89c-1.55,0-2.93-1.09-2.93-2.9c0-1.69,1.24-2.9,2.95-2.9C60.03,13.36,60.76,13.68,61.26,14.22z"/>
	<path class="st0" d="M12.01,27.29l-0.84,5.01h-0.12l0.84-5.01H12.01z"/>
	<path class="st0" d="M26.19,30.34c0.79-1.18,2.27-2.78,5.15-2.78c3.41,0,5.36,2.23,5.36,5.19c0,2.09-1.16,3.59-2.25,4.75l-5.01,5.3
		h7.82v1.76H26.68v-1.45l6.34-6.69c1.03-1.08,1.73-2.23,1.73-3.67c0-1.93-1.25-3.43-3.48-3.43c-1.91,0-2.95,1-3.74,2.1L26.19,30.34z
		"/>
	<path class="st0" d="M50.05,30.34c0.79-1.18,2.27-2.78,5.15-2.78c3.41,0,5.36,2.23,5.36,5.19c0,2.09-1.16,3.59-2.25,4.75l-5.01,5.3
		h7.82v1.76H50.54v-1.45l6.34-6.69c1.03-1.08,1.73-2.23,1.73-3.67c0-1.93-1.25-3.43-3.48-3.43c-1.91,0-2.95,1-3.74,2.1L50.05,30.34z
		"/>
</g>
</svg>
